# xmcd CD database file
#
# Track frame offsets:
#	150
#	20127
#	42233
#	60301
#	82214
#	103863
#	124535
#	146247
#	163968
#	180114
#
# Disc length: 2667 seconds
#
# Revision: 0
# Processed by: cddbd v1.5.1PL0 Copyright (c) Steve Scherf et al.
# Submitted via: CDex 1.51
#
DISCID=880a690a
DTITLE=Various Artist - AFTER SCHOOL HIP&HOP ☆Cool dude☆
DYEAR=2004
DGENRE=Hip-Hop
TTITLE0=LOCO POR VIDA/DESTINO
TTITLE1=GIFT/RIDGE RHYMER
TTITLE2=“YOKOHAMA LUXURY”/HYENA
TTITLE3=FOR THE CHILD/I THE TENDERNESS
TTITLE4=HOME TOWN/RESERVE DOGGS
TTITLE5=DNACE WITH YOU/DUMMEEZ
TTITLE6=HANA〜愛する人へ〜/ARM
TTITLE7=LA ISLA BONITA/TRIFORCE
TTITLE8=Let's all dance/CAMEL RUSH
TTITLE9=MIDNIGHT SERVICE/からくり
EXTD=YEAR: 2004
EXTT0=
EXTT1=
EXTT2=
EXTT3=
EXTT4=
EXTT5=
EXTT6=
EXTT7=
EXTT8=
EXTT9=
PLAYORDER=
